<?xml version="1.0" encoding="UTF-8"?>
<!DOCTYPE svg PUBLIC "-//W3C//DTD SVG 1.1//EN" "http://www.w3.org/Graphics/SVG/1.1/DTD/svg11.dtd">
<!-- Creator: CorelDRAW X8 -->
<svg xmlns="http://www.w3.org/2000/svg" xml:space="preserve" width="52.0671mm" height="25.7114mm" version="1.1" style="shape-rendering:geometricPrecision; text-rendering:geometricPrecision; image-rendering:optimizeQuality; fill-rule:evenodd; clip-rule:evenodd"
viewBox="0 0 5207 2571"
 xmlns:xlink="http://www.w3.org/1999/xlink">
 <defs>
  <style type="text/css">
   <![CDATA[
    .fil0 {fill:#FF3D00;fill-rule:nonzero}
   ]]>
  </style>
 </defs>
 <g id="Слой_x0020_1">
  <metadata id="CorelCorpID_0Corel-Layer"/>
  <path class="fil0" d="M86 570c-58,12 -86,73 -86,182 0,120 35,179 109,179l149 0 0 543c0,326 176,522 499,522 136,0 245,-30 329,-87 68,-49 76,-125 24,-231 -48,-101 -114,-125 -195,-73 -30,19 -65,27 -103,27 -68,0 -120,-57 -120,-147l0 -554 307 0c73,0 109,-59 109,-179 0,-109 -28,-170 -86,-182l-936 0zm173 -323c0,87 68,177 217,177 150,0 218,-90 218,-177l0 -71c0,-86 -68,-176 -218,-176 -149,0 -217,90 -217,176l0 71zm4513 1241c0,190 -249,190 -249,0l0 -445c0,-190 249,-190 249,0l0 445zm-206 508c81,0 149,-17 206,-52l0 100c0,98 -73,163 -171,163 -62,0 -125,-21 -187,-68 -65,-51 -158,-19 -223,82 -62,98 -57,174 17,228 111,81 252,122 423,122 171,0 310,-46 416,-141 105,-95 160,-220 160,-380l0 -994c0,-165 -55,-296 -163,-385 -109,-90 -242,-136 -397,-136 -154,0 -287,46 -396,136 -109,89 -163,220 -163,385l0 418c0,177 46,310 141,394 95,84 209,128 337,128zm-1176 -133c0,81 74,122 217,122 144,0 218,-41 218,-122l0 -1195c0,-82 -74,-122 -218,-122 -143,0 -217,40 -217,122l0 1195zm-922 -1195c0,-82 -73,-122 -217,-122 -144,0 -218,40 -218,122l0 839c0,84 -35,125 -108,125 -73,0 -109,-41 -109,-125l0 -839c0,-82 -73,-122 -217,-122 -144,0 -217,40 -217,122l0 806c0,160 49,288 149,383 101,92 223,139 367,139 154,0 271,-47 353,-136 81,89 198,136 353,136 144,0 266,-47 366,-139 101,-95 149,-223 149,-383l0 -806c0,-82 -73,-122 -217,-122 -144,0 -217,40 -217,122l0 839c0,84 -35,125 -109,125 -73,0 -108,-41 -108,-125l0 -839z"/>
 </g>
</svg>
